<?xml version="1.0" standalone="no"?>
<!DOCTYPE svg PUBLIC "-//W3C//DTD SVG 20010904//EN"
 "http://www.w3.org/TR/2001/REC-SVG-20010904/DTD/svg10.dtd">
<svg version="1.0" xmlns="http://www.w3.org/2000/svg"
 width="142.000000pt" height="142.000000pt" viewBox="0 0 142.000000 142.000000"
 preserveAspectRatio="xMidYMid meet">
<metadata>
Created by potrace 1.14, written by Peter Selinger 2001-2017
</metadata>
<g transform="translate(0.000000,142.000000) scale(0.100000,-0.100000)"
fill="#000000" stroke="none">
<path d="M842 1058 c-8 -8 -55 -12 -142 -13 -115 -1 -133 -3 -150 -20 -14 -15
-26 -60 -45 -168 -22 -127 -24 -151 -13 -175 l13 -27 151 -3 c187 -3 181 -7
199 126 4 29 12 56 19 60 6 3 36 7 66 8 87 3 89 3 99 22 5 9 11 31 14 47 3 17
8 49 12 73 6 34 4 47 -10 62 -16 17 -31 20 -110 20 -58 0 -95 -4 -103 -12z"/>
<path d="M21 532 c-20 -7 -12 -42 9 -43 11 -1 26 -2 33 -3 17 -2 18 -86 0 -93
-7 -3 -20 0 -28 7 -12 10 -17 7 -26 -14 -15 -33 -11 -37 44 -43 36 -4 49 -1
66 16 18 18 21 33 21 99 l0 79 -54 -1 c-30 0 -60 -2 -65 -4z"/>
<path d="M168 497 c-8 -107 22 -157 93 -157 61 0 89 31 93 105 3 83 0 93 -35
91 -29 -1 -29 -1 -29 -62 0 -43 -5 -65 -15 -74 -24 -20 -43 4 -43 53 0 84 0
84 -31 85 -28 1 -30 -2 -33 -41z"/>
<path d="M385 532 c-3 -3 -5 -47 -5 -99 l0 -93 34 0 c32 0 34 2 30 25 -3 17 0
25 9 25 8 0 20 -11 27 -25 10 -19 21 -25 47 -25 38 0 39 2 18 34 -14 21 -14
26 1 53 21 36 13 78 -19 94 -22 13 -132 21 -142 11z m100 -68 c0 -23 -40 -27
-41 -4 -1 23 4 28 24 26 9 -2 17 -11 17 -22z"/>
<path d="M586 530 c-2 -3 -2 -45 -2 -95 l1 -90 33 -3 32 -3 0 99 0 100 -31 -2
c-17 0 -32 -3 -33 -6z"/>
<path d="M677 531 c-2 -3 -3 -46 -3 -96 l1 -90 33 -3 c29 -3 32 -1 32 22 0 21
5 26 26 26 20 0 56 12 72 25 1 1 7 16 12 34 7 26 5 36 -14 58 -20 23 -31 26
-90 28 -36 1 -68 -1 -69 -4z m108 -67 c0 -12 -8 -20 -22 -22 -17 -3 -23 2 -23
16 0 24 7 31 28 28 9 -2 17 -11 17 -22z"/>
<path d="M924 532 c-11 -7 -22 -29 -72 -144 l-21 -48 34 0 c24 0 35 5 39 18 9
27 72 28 86 2 11 -20 70 -30 70 -12 0 8 -69 173 -75 180 -6 7 -51 11 -61 4z
m42 -109 c-10 -10 -34 11 -29 24 5 14 8 13 20 -2 7 -10 11 -20 9 -22z"/>
<path d="M1112 530 c-25 -10 -42 -47 -34 -70 8 -22 33 -38 70 -45 17 -3 32
-10 32 -15 0 -13 -32 -13 -63 -1 -21 8 -26 6 -36 -15 -10 -22 -8 -26 15 -34
66 -25 137 -4 146 44 5 23 -20 65 -40 67 -27 3 -46 9 -56 19 -8 9 0 11 33 9
37 -3 45 0 52 18 6 17 3 22 -14 27 -31 8 -78 6 -105 -4z"/>
<path d="M1286 518 c-45 -38 -21 -90 46 -103 12 -3 26 -10 32 -16 8 -9 -2 -10
-40 -5 -47 6 -52 4 -57 -14 -6 -25 24 -40 81 -40 51 1 72 19 72 63 0 30 -5 39
-30 52 -16 8 -35 14 -41 13 -6 -2 -14 3 -17 11 -4 11 4 13 36 8 35 -4 42 -2
48 15 8 26 2 30 -54 36 -40 3 -53 0 -76 -20z"/>
</g>
</svg>
